<?xml version="1.0" encoding="UTF-8" standalone="no"?>
<!DOCTYPE svg PUBLIC "-//W3C//DTD SVG 1.1//EN" "http://www.w3.org/Graphics/SVG/1.1/DTD/svg11.dtd">
<svg width="100%" height="100%" viewBox="0 0 200 200" version="1.1" xmlns="http://www.w3.org/2000/svg" xmlns:xlink="http://www.w3.org/1999/xlink" xml:space="preserve" xmlns:serif="http://www.serif.com/" style="fill-rule:evenodd;clip-rule:evenodd;stroke-linejoin:round;stroke-miterlimit:2;">
    <g transform="matrix(0.866025,-0.5,0.5,0.866025,-36.539,63.6735)">
        <path d="M183.672,90.566L151.035,34.023C147.656,28.164 141.426,24.57 134.668,24.57L66.445,24.57C59.687,24.57 53.457,28.184 50.078,34.023L17.422,90.566C14.043,96.426 14.043,103.633 17.422,109.473L50.078,166.016C53.457,171.875 59.687,175.469 66.445,175.469L134.648,175.469C141.406,175.469 147.637,171.855 151.016,166.016L183.672,109.473C187.051,103.633 187.051,96.426 183.672,90.566ZM165.195,109.473L141.777,150.02C138.398,155.879 132.168,159.473 125.41,159.473L75.684,159.473C68.926,159.473 62.695,155.859 59.316,150.02L35.918,109.473C32.539,103.613 32.539,96.406 35.918,90.566L59.316,50.039C62.695,44.18 68.926,40.586 75.684,40.586L125.41,40.586C132.168,40.586 138.398,44.199 141.777,50.039L165.176,90.566C168.555,96.426 168.555,103.633 165.195,109.473Z" style="fill:rgb(84,46,225);fill-rule:nonzero;"/>
    </g>
</svg>
